PathFileType	4	(X/Y/Z)	Run_400 02
DataRate	CameraRate	NumFrames	NumMarkers	Units	OrigDataRate	OrigDataStartFrame	OrigNumFrames
100	100	6	42	mm	100	78	128
Frame#	Time	LASI			RASI			LPSI			RPSI			RTH1			RTH2			RTH3			LTH1			LTH2			LTH3			RTB1			RTB2			RTB3			LTB1			LTB2			LTB3			RCAL			RTOE			RMT5			LCAL			LTOE			LMT5			LACR			RACR			CLAV			C7			RUA1			RUA2			RUA3			RLEL			RMEL			LUA1			LUA2			LUA3			LLEL			LMEL			RFAsuperior			RFAradius			RFAulna			LFAsuperior			LFAradius			LFAulna			
		X1	Y1	Z1	X2	Y2	Z2	X3	Y3	Z3	X4	Y4	Z4	X5	Y5	Z5	X6	Y6	Z6	X7	Y7	Z7	X8	Y8	Z8	X9	Y9	Z9	X10	Y10	Z10	X11	Y11	Z11	X12	Y12	Z12	X13	Y13	Z13	X14	Y14	Z14	X15	Y15	Z15	X16	Y16	Z16	X17	Y17	Z17	X18	Y18	Z18	X19	Y19	Z19	X20	Y20	Z20	X21	Y21	Z21	X22	Y22	Z22	X23	Y23	Z23	X24	Y24	Z24	X25	Y25	Z25	X26	Y26	Z26	X27	Y27	Z27	X28	Y28	Z28	X29	Y29	Z29	X30	Y30	Z30	X31	Y31	Z31	X32	Y32	Z32	X33	Y33	Z33	X34	Y34	Z34	X35	Y35	Z35	X36	Y36	Z36	X37	Y37	Z37	X38	Y38	Z38	X39	Y39	Z39	X40	Y40	Z40	X41	Y41	Z41	X42	Y42	Z42	

71	1.24	771.327679	969.497677	-435.631095	762.984911	989.1302480000001	-165.918793	596.347716	987.671024	-361.706388	587.595095	991.020445	-259.459152	707.675111	797.501394	-127.505881	821.044256	717.480744	-139.63656	794.90084	589.196272	-182.03536	705.121311	768.88407	-471.88029	768.394619	644.107939	-458.130582	721.630117	529.161067	-441.661496	876.73038	368.933845	-266.751793	839.5073190000001	314.695771	-208.150374	819.489592	208.107098	-275.137159	617.172654	399.847195	-376.937965	541.848699	434.670012	-451.648992	458.180576	386.654246	-385.131238	674.69821	101.387036	-295.909644	898.921078	64.52665399999999	-293.737245	840.668355	60.322859	-205.476845	351.861897	503.938196	-371.878212	267.768974	290.763287	-372.50879	255.377132	354.551198	-455.321659	785.5535609999999	1440.532471	-469.403602	763.5955709999999	1464.997363	-138.996099	823.978146	1385.429055	-267.02126	706.612267	1475.600302	-306.494863	700.9061799999999	1400.721629	-54.378362	618.9680949999999	1347.043408	-75.52262399999999	637.692403	1290.044882	-24.60497	574.180075	1202.187453	1.395707	554.4814730000001	1193.445987	-75.576289	749.493457	1352.034829	-551.2942849999999	682.676418	1278.209019	-538.069859	705.0047479999999	1215.295334	-587.620327	707.641306	1129.845035	-609.410128	659.711429	1125.501981	-544.42907	660.063543	1134.32863	5.725956	786.13127	1047.035501	-39.23527	731.383807	1000.176477	-26.643601	802.898953	1093.284003	-563.379348	906.015192	1056.699083	-441.95132	896.2782539999999	994.230895	-476.466143	
72	1.25	768.09776	963.436283	-436.141807	761.5959810000001	987.753358	-164.114056	594.2309289999999	986.246455	-362.883244	586.506225	989.869452	-260.949441	702.497018	796.273641	-127.158275	814.368365	714.459347	-140.823976	782.011599	584.946589	-181.839238	709.0307299999999	765.401025	-470.801149	781.427456	643.640238	-458.482341	742.506093	528.475828	-441.673431	852.981533	364.19276	-268.396536	812.4609819999999	310.225748	-207.476027	786.450297	205.123706	-275.05771	645.078701	402.023304	-374.595038	568.873336	431.836327	-452.36605	486.726117	383.595606	-384.220457	634.7986959999999	102.569282	-294.937194	859.252927	65.62463	-290.669958	800.546193	59.728094	-204.238314	377.213259	500.517842	-370.477481	301.09841	284.163121	-373.409505	289.879311	347.188605	-456.986217	780.1083620000001	1437.207738	-470.316216	763.84653	1461.209446	-137.788596	823.394894	1382.751299	-267.694825	705.185605	1472.800047	-305.101505	705.946371	1393.580391	-52.791087	625.189441	1336.664877	-68.535667	649.499734	1281.093122	-18.892187	589.976409	1190.578704	10.030891	565.2745609999999	1181.703994	-65.98964700000001	741.545558	1348.617213	-550.62809	674.164983	1275.560664	-535.244132	694.619377	1212.672645	-585.819666	694.842048	1127.10943	-608.026672	648.410313	1122.799538	-542.580733	677.669597	1125.770622	10.594071	803.524875	1041.889724	-37.443653	750.696054	993.424708	-22.638249	789.119368	1084.244954	-565.537742	893.57772	1036.334562	-449.266023	878.650343	976.035588	-486.011523	
73	1.26	764.647478	960.976046	-437.327427	760.9591799999999	987.286529	-163.872155	591.9732729999999	986.0670679999999	-362.763853	585.445231	989.742748	-261.15874	697.237646	795.839126	-126.028794	805.112852	710.399147	-141.967786	765.341259	580.483537	-181.890792	710.61323	763.3598040000001	-469.123524	795.113305	645.60878	-458.751067	764.1701859999999	530.5092979999999	-442.019942	826.268435	357.92855	-269.510834	783.726809	303.996463	-207.445629	751.684848	201.26791	-274.995802	673.819696	404.998617	-371.66341	596.460322	428.523593	-452.012203	516.6291629999999	379.938167	-382.871504	594.665827	103.646068	-293.487658	819.2909560000001	66.029386	-288.103034	760.202162	58.418156	-202.822753	401.717938	494.19445	-370.19412	336.380651	274.124275	-372.83228	325.940279	335.366215	-457.806829	775.044878	1435.179399	-470.907272	764.738773	1458.224321	-136.927014	822.722757	1381.20188	-268.656662	703.939517	1471.26005	-303.694675	709.904859	1388.878403	-51.44167	631.3648439999999	1328.068447	-64.133718	660.703092	1274.633712	-14.325809	606.408775	1181.381798	17.933705	576.9391419999999	1171.696783	-56.77015	733.636444	1346.914751	-549.93102	665.806749	1274.641346	-532.253502	683.468677	1211.847848	-583.816514	681.298747	1126.337745	-606.578752	637.327231	1121.917727	-540.467537	695.821826	1119.728047	14.65392	821.447558	1038.859801	-36.375674	770.8678159999999	989.0605389999999	-19.408844	774.419133	1078.309258	-567.090988	879.331758	1018.386857	-456.932337	859.305875	960.880805	-495.941762	
74	1.27	761.760898	961.961008	-438.360098	760.630664	987.157492	-165.110351	589.518985	986.463337	-361.472559	584.052244	990.343121	-260.160239	692.347447	796.196538	-124.506646	793.9420720000001	705.806874	-142.645673	747.383507	577.3242289999999	-181.866074	710.747089	762.456377	-466.633331	809.09424	650.405694	-459.141182	786.127423	534.760479	-442.536403	797.394332	350.785629	-270.108807	754.1456930000001	297.963911	-208.366617	715.864409	198.077908	-275.174872	703.079394	408.544315	-368.472893	624.555675	424.96505	-450.500416	547.539884	375.793032	-381.210266	554.634808	105.098757	-291.986557	779.192728	65.983619	-286.367117	719.787571	57.152372	-201.573582	425.035966	484.882899	-370.844327	373.793026	261.045943	-371.10526	362.749532	319.718197	-457.577366	770.590425	1434.603097	-471.273035	766.280369	1456.489966	-136.576072	822.0117299999999	1380.73709	-269.840939	702.715677	1470.913916	-302.378937	713.424746	1386.411554	-50.185657	637.491787	1321.739782	-62.171197	670.544463	1270.80187	-10.827766	622.3580930000001	1175.183392	24.649209	589.111343	1163.695532	-48.400437	725.822468	1347.09239	-549.343057	657.52784	1275.546843	-529.31041	671.4439620000001	1213.225332	-581.7520060000001	666.756737	1127.96818	-605.282304	626.099331	1123.421019	-538.370663	713.389512	1116.678906	18.065185	839.232169	1038.734127	-36.066444	791.072602	987.814979	-16.914722	758.627119	1075.403682	-568.847527	863.328043	1004.083655	-464.886683	838.381226	949.7715930000001	-505.855782	
75	1.28	759.89089	965.267207	-438.772112	760.102312	987.14939	-166.883555	587.314556	987.566452	-359.430597	582.763776	991.858351	-258.405849	687.609459	796.929002	-123.373131	782.6520389999999	701.8347199999999	-143.275308	729.990119	575.49258	-181.093138	711.3400779999999	763.058863	-464.040518	822.864564	658.191857	-459.645884	807.902924	541.535159	-443.08266	767.221937	343.877066	-270.18597	723.576868	293.702897	-209.31403	679.757754	196.438618	-275.276201	732.52181	412.411778	-365.370026	652.854154	421.448739	-448.09207	579.110194	371.237208	-379.358363	515.056503	107.501494	-290.641813	739.16295	65.941782	-285.074105	679.421878	56.44864	-200.508478	447.307925	472.489883	-372.055404	413.739058	245.510341	-368.644858	399.983186	300.912023	-456.148038	766.616982	1435.604795	-471.547001	768.297958	1456.400899	-136.801315	821.307533	1381.438281	-271.199141	701.490737	1471.775768	-301.243554	717.470946	1385.91737	-49.091804	643.84762	1318.0026	-61.521065	678.92741	1269.564802	-8.244680000000001	636.877985	1172.14508	29.90743	601.44219	1158.135335	-41.529686	718.1076880000001	1349.323548	-548.945142	649.094754	1278.756585	-526.289126	658.450054	1217.27332	-579.585029	651.025008	1132.423875	-604.207611	613.8631339999999	1127.817681	-536.382353	729.522912	1116.760869	20.907894	856.23502	1042.085875	-36.345028	810.560511	990.087428	-15.176615	741.387553	1075.009538	-571.634086	845.943936	994.50877	-473.212353	816.216844	943.389262	-515.252016	
76	1.29	758.932737	969.708817	-438.783829	759.356252	987.212029	-168.180408	585.904323	989.767618	-357.189435	582.273567	994.529941	-256.490252	682.175257	797.737669	-123.115531	772.049446	699.078805	-144.325996	713.077641	574.1075990000001	-179.491423	714.101138	765.726862	-462.499438	835.906795	668.562414	-460.108768	828.851541	551.287738	-443.514746	736.5990860000001	338.393321	-269.671202	691.724314	291.638028	-209.105147	644.150186	196.528451	-274.81983	761.796093	416.373475	-362.67112	680.802758	418.29924	-445.342148	610.992747	366.313216	-377.434944	476.112399	111.289033	-289.307733	699.169575	65.935682	-284.073253	639.165229	56.416392	-199.505304	468.993155	456.977714	-373.294339	456.510653	228.163814	-365.916935	437.929117	279.642201	-453.539914	762.834241	1438.136244	-471.81678	770.573398	1458.040989	-137.532266	820.698429	1383.398718	-272.716514	700.316118	1473.781331	-300.301546	722.531158	1387.215808	-48.321258	650.517085	1316.900938	-60.816231	686.269267	1270.66199	-6.459057	649.5780099999999	1172.007911	33.74202	613.5024550000001	1155.408943	-36.564622	710.347848	1353.643331	-548.737406	640.3653859999999	1284.70768	-522.864659	644.5573460000001	1224.175152	-577.214562	634.0992199999999	1139.844534	-603.308373	600.063068	1135.265001	-534.438005	743.968641	1119.778736	23.110117	872.053683	1048.99533	-36.97517	828.920537	995.825439	-14.188149	722.647029	1077.021001	-575.611609	827.803448	990.258024	-481.991122	793.435527	941.925215	-523.733023	
